<?xml version="1.0" encoding="utf-8"?>
<!-- Generator: Adobe Illustrator 26.0.3, SVG Export Plug-In . SVG Version: 6.00 Build 0)  -->
<svg version="1.1" id="Layer_1" xmlns="http://www.w3.org/2000/svg" xmlns:xlink="http://www.w3.org/1999/xlink" x="0px" y="0px"
	 viewBox="0 0 800 200" style="enable-background:new 0 0 800 200;" xml:space="preserve">
<style type="text/css">
	.st0{fill-rule:evenodd;clip-rule:evenodd;fill:#A0A2C8;}
</style>
<path class="st0" d="M800,67.4l-1.8,28.4h-11.9c-18.3,0-27.5,14.7-27.5,28.4v62.4h-32.1V67.4h30.3l0.9,15.6
	c6.4-11,17.4-15.6,31.2-15.6L800,67.4z M577.1,186.7H545v-62.4c0-13.8-1-30.3-19.3-30.3s-24.8,12.8-24.8,28.4v64.2h-33V67.4h30.3
	l0.9,15.6c6.4-10.1,18.3-18.3,35.8-18.3c32.1,0,42.2,22.9,42.2,47.7L577.1,186.7L577.1,186.7z M454.1,159.2l-1.8,26.6
	c-8.3,2.8-14.7,2.8-22.9,2.8c-30.3,0-39.5-13.8-39.5-41.3V34.4H422v33h32.1l-1.8,28.4H422v48.7c0,11,3.7,17.4,14.7,17.4
	C442.6,161.8,448.5,160.9,454.1,159.2z M379.8,67.4l-2.8,28.4h-9.2c-17.4,0-26.6,14.7-26.6,28.4v62.4h-32.1V67.4h30.3l0.9,15.6
	c6.4-11,17.4-15.6,31.2-15.6L379.8,67.4z M164.2,173.9c-22,11.9-44,18.3-72.5,17.4C38.5,189.4,0,156.4,0,100.4S38.5,9.6,91.7,8.7
	c26.6-0.9,50.5,6.4,69.7,22.9l-22.9,22.9C126.6,44.5,110.1,39,89.9,39.9C56,40.8,35.8,65.6,35.8,98.6c-0.9,35.8,21.1,60.5,56,61.5
	c16.5,0.9,28.4-0.9,38.5-5.5V117H93.6l2.8-30.3h67.9V173.9L164.2,173.9z M711.9,139h-88.1c2.8,14.7,14.7,23.9,29.4,24.8
	c14.7,0,22.9-4.6,33-14.7l21.1,15.6c-14.7,18.4-32.1,24.8-53.2,24.8c-35.8,0-62.4-24.8-62.4-62.4c0-36.7,26.6-62.4,61.5-62.4
	c38.5,0,58.7,22.9,58.7,64.2L711.9,139L711.9,139z M679.8,113.3c-0.9-14.7-11.9-23.8-27.5-23.8c-15.6,0.9-25.7,11-28.4,23.8H679.8z
	 M289,108.7v78h-28.5l-0.9-11.9c-8.3,11-22.9,14.7-37.6,14.7c-21.1,0-42.2-10.1-42.2-35.8c-0.9-39.4,44-42.2,72.5-42.2h5.5v-1.8
	c0-12.8-8.2-20.2-24.8-20.2c-11.9,0-22.9,5.5-32.1,12.8l-18.3-18.4c14.8-12.6,33.7-19.4,53.2-19.3C272.5,64.7,289,82.1,289,108.7
	L289,108.7z M257.8,135.3h-4.6c-14.7,0-42.2,0-41.3,16.5c0,22,45.9,14.7,45.9-11.9L257.8,135.3L257.8,135.3z"/>
</svg>
