<?xml version="1.0" encoding="utf-8"?>
<!-- Generator: Adobe Illustrator 26.0.3, SVG Export Plug-In . SVG Version: 6.00 Build 0)  -->
<svg version="1.1" id="Layer_1" xmlns="http://www.w3.org/2000/svg" xmlns:xlink="http://www.w3.org/1999/xlink" x="0px" y="0px"
	 viewBox="0 0 760 381.4" style="enable-background:new 0 0 760 381.4;" xml:space="preserve">
<style type="text/css">
	.st0{fill:#A0A2C8;}
</style>
<polygon class="st0" points="489.9,129.6 384.7,129.6 380.7,143.9 423.4,143.9 350.1,251.1 455.3,251.1 459.4,237.5 416,236.9 "/>
<path class="st0" d="M557.8,123.5c-46.1,0-82.1,37.3-82.1,82.8c0,34.6,24.4,50.9,57,50.9c30.5,0,63.1-19,72.6-49.5h-48.9
	c-4.1,11.5-9.5,33.9-25.1,33.9c-8.1,0-13.6-4.1-13.6-13.6c0-10.9,4.1-23.1,7.5-33.2h83.5c2.7-7.9,4.1-16.1,4.1-24.4
	C612.8,137.1,586.3,123.5,557.8,123.5z M570,151.4L570,151.4c0,9.5-4.1,19-6.1,29.2H530c3.4-13.6,9.5-42.1,27.1-42.1
	c6.9-0.2,12.6,5.2,12.9,12.1C570,150.8,570,151.1,570,151.4z"/>
<path class="st0" d="M166.9,69.9H78.7l-3.4,14.2h20.4v0.7L48.1,251.1h47.5l17.6-56.3h12.9c53.6,0,98.4-17,98.4-78.7l0,0
	C224.6,80.1,198.1,69.9,166.9,69.9z M126.9,180.5h-9.5l28.5-96.4h8.1c13.6,0,21,5.4,21,19C175,131.7,160.8,181.2,126.9,180.5
	L126.9,180.5z"/>
<path class="st0" d="M690.1,150.7l6.1-21h-64.5l-5.4,14.2l19,0.7l-31.2,106.5h47.5c6.8-22.4,18.3-86.9,42.1-104.5h1.3
	c-0.8,2.2-1.2,4.4-1.3,6.8c0,12.2,10.8,23.1,23.1,23.1c14.2,0,25.1-12.2,25.1-26.5c0-12.9-10.9-23.1-23.8-23.1
	C711.8,126.9,698.3,137.8,690.1,150.7z"/>
<path class="st0" d="M210.3,381.4c4.8-26.5,14.3-50.2,21.7-76l47.5-160.9h34.6l-31.2,106.6h47.5l35.3-121.5h-82.1
	c9.5-30.5,19.7-122.2,64.5-122.2c9.5,0,20.4,3.4,25.1,12.2c-14.9,0.7-27.2,8.8-27.2,25.1c0,13.6,11.6,24.4,25.2,24.4
	c16.3,0,27.8-14.9,27.8-30.5C399,10.2,368.5,0,345.4,0c-65.8,0-89.6,56.3-105.2,110.6l-74,254.5l-1.1,3.2"/>
</svg>
